<svg width="180" height="68" viewBox="0 0 180 68" fill="none" xmlns="http://www.w3.org/2000/svg">
<g clip-path="url(#clip0_394_3707)">
<path d="M50.0999 36.9001H58.0999L53.9999 56.2001C52.2999 64.1001 47.1999 68.0001 38.6999 68.0001C34.7999 68.0001 31.8999 67.2001 29.8999 65.6001C27.8999 64.0001 26.8999 61.6001 26.8999 58.5001C26.8999 57.3001 27.0999 56.0001 27.3999 54.6001L30.9999 36.9001H38.9999L35.4999 53.3001C35.1999 54.7001 34.9999 56.0001 34.9999 57.0001C34.9999 58.7001 35.3999 59.9001 36.0999 60.7001C36.8999 61.5001 37.9999 61.8001 39.5999 61.8001C41.2999 61.8001 42.6999 61.3001 43.7999 60.2001C44.8999 59.1001 45.7999 57.1001 46.3999 54.2001L50.0999 36.9001Z" fill="#3E55CC"/>
<path d="M73.3 49.0001L81.8 37.0001H90.5L75.9 55.7001L73.4 67.4001H65.3L67.8 55.6001L61 36.9001H69.9L73.3 49.0001Z" fill="#3E55CC"/>
<path d="M112.5 36.9001H120.5L116.4 56.2001C114.7 64.1001 109.6 68.0001 101.1 68.0001C97.2 68.0001 94.3 67.2001 92.3 65.6001C90.3 64.0001 89.3 61.6001 89.3 58.5001C89.3 57.3001 89.5 56.0001 89.8 54.6001L93.4 37.1001H101.4L97.9 53.5001C97.6 54.9001 97.4 56.2001 97.4 57.2001C97.4 58.9001 97.8 60.1001 98.5 60.9001C99.3 61.7001 100.4 62.0001 102 62.0001C103.7 62.0001 105.1 61.5001 106.2 60.4001C107.3 59.3001 108.2 57.3001 108.8 54.4001L112.5 36.9001Z" fill="#3E55CC"/>
<path d="M132.4 36.9001L141.3 55.0001L145.1 36.9001H152.3L145.8 67.4001H139.7L130.8 49.7001L127 67.5001H119.7L126.2 37.0001H132.4V36.9001Z" fill="#3E55CC"/>
<path d="M16 29.5001C16 29.5001 12.8 28.9001 9.2 26.4001L0 67.5001H8L13.2 42.6001H24.4L25.7 36.8001H14.4L16 29.5001Z" fill="#3E55CC"/>
<path d="M87.1 1.80004C76.3 1.80004 64 7.30004 54.3 12.8C55.3 12.9 63.6 5.60004 75.6 13.7C96.1 -3.19996 121.4 10.5 143.7 12.5C168 14.8 176 6.20004 180 4.60004C177.2 0.600039 170.9 -3.89996 157.7 5.60004C157.4 5.80004 148.9 10.5 130.9 7.80004C116 5.60004 112.1 1.90004 87.1 1.80004Z" fill="url(#paint0_linear_394_3707)"/>
<path opacity="0.85" d="M87.1001 1.80014C65.6001 1.70014 37.6001 23.9001 37.6001 23.9001C37.6001 23.9001 43.4001 20.2001 58.5001 22.8001C78.0001 26.2001 81.0001 31.2001 110 29.7001C133.8 28.5001 157.7 5.70014 157.7 5.70014C157.7 5.70014 148.9 10.6001 130.9 7.90014C116 5.60014 112.1 1.90014 87.1001 1.80014Z" fill="url(#paint1_linear_394_3707)"/>
<path opacity="0.9" d="M37.6001 23.9001C37.6001 23.9001 43.4001 20.2001 58.5001 22.8001C78.0001 26.2001 81.0001 31.2001 110 29.7001C121.5 29.1001 133 23.5001 141.8 17.8001C127 24.7001 122.6 16.7001 121.6 16.6001C93.3001 34.5001 73.9001 22.4001 46.3001 18.1001C20.4001 15.6001 13.2001 23.5001 9.1001 26.4001C23.4001 36.2001 37.6001 23.9001 37.6001 23.9001Z" fill="url(#paint2_linear_394_3707)"/>
</g>
<defs>
<linearGradient id="paint0_linear_394_3707" x1="117.132" y1="13.7402" x2="117.131" y2="0.000108362" gradientUnits="userSpaceOnUse">
<stop stop-color="#374FC7"/>
<stop offset="0.2464" stop-color="#556BDA"/>
<stop offset="1" stop-color="#37CDFA"/>
</linearGradient>
<linearGradient id="paint1_linear_394_3707" x1="37.4209" y1="17.0971" x2="157.912" y2="14.4932" gradientUnits="userSpaceOnUse">
<stop stop-color="#374FC7"/>
<stop offset="1" stop-color="#23BA99"/>
</linearGradient>
<linearGradient id="paint2_linear_394_3707" x1="70.4515" y1="32.947" x2="88.0493" y2="-4.7915" gradientUnits="userSpaceOnUse">
<stop offset="0.0167598" stop-color="#374FC7"/>
<stop offset="0.2933" stop-color="#23BA99"/>
<stop offset="0.7486" stop-color="#37CDFA"/>
</linearGradient>
<clipPath id="clip0_394_3707">
<rect width="180" height="68" fill="white"/>
</clipPath>
</defs>
</svg>
